# AST/ASF file generated using VICON BodyLanguage
# -----------------------------------------------
:version 1.10
:name VICON
:units
  mass 1.0
  length 0.45
  angle deg
:documentation
   .ast/.asf automatically generated from VICON data using
   VICON BodyBuilder and BodyLanguage model FoxedUp or BRILLIANT.MOD
:root
   order TX TY TZ RX RY RZ
   axis XYZ
   position 0 0 0  
   orientation 0 0 0 
:bonedata
  begin
     id 1 
     name lhipjoint
     direction 0.612567 -0.751349 0.245431 
     length 2.42285 
     axis 0 0 0  XYZ
  end
  begin
     id 2 
     name lfemur
     direction 0.34202 -0.939693 0  
     length 7.11304  
     axis 0 0 20  XYZ
    dof rx ry rz
    limits (-160.0 20.0)
           (-70.0 70.0)
           (-60.0 70.0)
  end
  begin
     id 3 
     name ltibia
     direction 0.34202 -0.939693 0   
     length 7.84529   
     axis 0 0 20   XYZ
    dof rx
    limits (-10.0 170.0)
  end
  begin
     id 4 
     name lfoot
     direction 0.0779239 -0.214094 0.9737   
     length 1.97176   
     axis -90 7.62852e-016 20   XYZ
    dof rx rz
    limits (-45.0 90.0)
           (-70.0 20.0)
  end
  begin
     id 5 
     name ltoes
     direction 1.53565e-011 -4.21709e-011 1   
     length 0.993197   
     axis -90 7.62852e-016 20   XYZ
    dof rx
    limits (-90.0 20.0)
  end
  begin
     id 6 
     name rhipjoint
     direction -0.665722 -0.709315 0.231701   
     length 2.56642  
     axis 0 0 0  XYZ 
  end
  begin
     id 7 
     name rfemur
     direction -0.34202 -0.939693 0   
     length 7.32108   
     axis 0 0 -20   XYZ
    dof rx ry rz
    limits (-160.0 20.0)
           (-70.0 70.0)
           (-70.0 60.0)
  end
  begin
     id 8 
     name rtibia
     direction -0.34202 -0.939693 0   
     length 7.81254   
     axis 0 0 -20   XYZ
    dof rx
    limits (-10.0 170.0)
 end
 begin
     id 9 
     name rfoot
     direction -0.0832806 -0.228812 0.969902   
     length 2.08278  
     axis -90 -7.62852e-016 -20   XYZ
    dof rx rz
    limits (-45.0 90.0)
           (-20.0 70.0)
  end
  begin
     id 10 
     name rtoes
     direction -1.53589e-011 -4.22086e-011 1   
     length 1.04609   
     axis -90 -7.62852e-016 -20   XYZ
    dof rx
    limits (-90.0 20.0)
  end
  begin
     id 11 
     name lowerback
     direction -0.00506013 0.988403 -0.151766   
     length 2.01978   
     axis 0 0 0   XYZ
    dof rx ry rz
    limits (-20.0 45.0)
           (-30.0 30.0)
           (-30.0 30.0)
  end
  begin
     id 12 
     name upperback
     direction -0.00836389 0.99968 0.0238859   
     length 2.01276   
     axis 0 0 0   XYZ
    dof rx ry rz
    limits (-20.0 45.0)
           (-30.0 30.0)
           (-30.0 30.0)
  end
  begin
     id 13 
     name thorax
     direction -0.00684136 0.995386 0.0957043   
     length 2.07303   
     axis 0 0 0   XYZ
    dof rx ry rz
    limits (-20.0 45.0)
           (-30.0 30.0)
           (-30.0 30.0)
  end
  begin
     id 14 
     name lowerneck
     direction -0.0161045 0.999661 0.0204485   
     length 1.91243   
     axis 0 0 0   XYZ
    dof rx ry rz
    limits (-20.0 45.0)
           (-30.0 30.0)
           (-30.0 30.0)
  end
  begin
     id 15 
     name upperneck
     direction 0.0553583 0.990946 -0.122319   
     length 1.91574   
     axis 0 0 0   XYZ
    dof rx ry rz
    limits (-20.0 45.0)
           (-30.0 30.0)
           (-30.0 30.0)
  end
  begin
     id 16
     name head
     direction 0.0180273 0.998839 -0.0446756  
     length 1.92693  
     axis 0 0 0   XYZ
    dof rx ry rz
    limits (-20.0 45.0)
           (-30.0 30.0)
           (-30.0 30.0)
  end
  begin
     id 17 
     name lclavicle
     direction 0.945646 0.319323 -0.0615358  
     length 4.0076  
     axis 0 0 0   XYZ
    dof ry rz
    limits (-20.0 10.0)
           (0.0 20.0)
  end
  begin
     id 18 
     name lhumerus
     direction 1 -4.48967e-011 -2.79996e-027   
     length 5.64147   
     axis 180 -30 -90   XYZ
    dof rx ry rz
    limits (-60.0 90.0)
           (-90.0 90.0)
           (-90.0 90.0)
  end
  begin
     id 19
     name lradius
     direction 1 -4.48976e-011 -9.5122e-027   
     length 2.86444   
     axis 180 -30 -90   XYZ
    dof rx
    limits (-10.0 170.0)
  end
  begin
     id 20
     name lwrist
     direction 1 -4.48983e-011 -1.24047e-026   
     length 1.43222   
     axis 9.05591e-015 90 90   XYZ
    dof ry
    limits (-180.0 0.0)
 end
  begin
     id 21 
     name lhand
     direction 1 -4.4892e-011 -2.48094e-026   
     length 0.722123   
     axis 1.58305e-014 90 90   XYZ
    dof rx rz
    limits (-90.0 90.0)
           (-45.0 45.0)
  end
  begin
     id 22 
     name lfingers
     direction 1 -4.48895e-011 -4.96187e-026   
     length 0.582194   
     axis 3.1661e-014 90 90   XYZ
    dof rx
    limits (0.0 90.0)
  end
  begin
     id 23
     name lthumb
     direction 0.707107 -6.34961e-011 0.707107   
     length 0.835918   
     axis -90 45 2.85299e-015   XYZ
    dof rx rz
    limits (-45.0 45.0)
           (-45.0 45.0)
  end
  begin
     id 24 
     name rclavicle
     direction -0.932635 0.324218 -0.15835   
     length 3.65819  
     axis 0 0 0   XYZ 
    dof ry rz
    limits (-10.0 20.0)
           (-20.0 0.0)
  end
  begin
     id 25 
     name rhumerus
     direction -1 -4.48965e-011 -4.02296e-027  
     length 5.44729   
     axis 180 30 90   XYZ
    dof rx ry rz
    limits (-90.0 60.0)
           (-90.0 90.0)
           (-90.0 90.0)
  end
  begin
     id 26 
     name rradius
     direction -1 -4.48957e-011 -8.81087e-027   
     length 3.08821   
     axis 180 30 90   XYZ
    dof rx
    limits (-10.0 170.0)
  end
  begin
     id 27 
     name rwrist
     direction -1 -4.49015e-011 -1.24047e-026   
     length 1.5441   
     axis 9.05591e-015 -90 -90   XYZ
    dof ry
    limits (-180.0 0.0)
  end
  begin
     id 28
     name rhand
     direction -1 -4.4891e-011 -2.48094e-026   
     length 0.821049   
     axis 1.58305e-014 -90 -90   XYZ
    dof rx rz
    limits (-90.0 90.0)
           (-45.0 45.0)
  end
  begin
     id 29
     name rfingers
     direction -1 -4.48985e-011 -4.96187e-026   
     length 0.661951   
     axis 3.1661e-014 -90 -90   XYZ
    dof rx
    limits (0.0 90.0)
  end
  begin
     id 30
     name rthumb
     direction -0.707107 -6.34906e-011 0.707107   
     length 0.950433   
     axis -90 -45 -2.85299e-015   XYZ
    dof rx rz
    limits (-45.0 45.0)
           (-45.0 45.0)
  end
:hierarchy
  begin
    root lhipjoint rhipjoint lowerback
    lhipjoint lfemur
    lfemur ltibia
    ltibia lfoot
    lfoot ltoes
    rhipjoint rfemur
    rfemur rtibia
    rtibia rfoot
    rfoot rtoes
    lowerback upperback
    upperback thorax
    thorax lowerneck lclavicle rclavicle
    lowerneck upperneck
    upperneck head
    lclavicle lhumerus
    lhumerus lradius
    lradius lwrist
    lwrist lhand lthumb
    lhand lfingers
    rclavicle rhumerus
    rhumerus rradius
    rradius rwrist
    rwrist rhand rthumb
    rhand rfingers
  end

#!OML:ASF F:\VICON\USERDATA\INSTALL\rory3\rory3.ASF
:FULLY-SPECIFIED
:DEGREES
110
root 3.7954 17.6096 -0.254628 -18.814 88.4021 -15.9199
lowerback 2.53676 0.985465 -1.03249
upperback -4.78702 1.1537 -4.42598
thorax -6.33873 0.556973 -4.14937
lowerneck -6.13718 -2.38071 -4.86873
upperneck 5.9489 -2.84731 1.52574
head 3.10132 -1.46971 1.21996
rclavicle 1.39149e-014 -2.8625e-014
rhumerus -12.3196 -8.38462 -48.5851
rradius 110.166
rwrist -38.8021
rhand -8.59297 19.9037
rfingers 7.12502
rthumb 17.3382 -9.34298
lclavicle 1.39149e-014 -2.8625e-014
lhumerus -4.05398 5.95947 67.0497
lradius 116.385
lwrist 81.075
lhand -3.70054 6.5092
lfingers 7.12502
lthumb 22.0415 35.2731
rfemur 5.43744 1.48484 17.6996
rtibia 13.5775
rfoot -19.1108 -6.28436
rtoes -9.17927
lfemur 3.74867 1.62633 -17.2527
ltibia 12.7865
lfoot -13.5994 -1.52153
ltoes -1.80951
111
root 3.79716 17.6104 -0.257413 -18.8508 88.3993 -15.9668
lowerback 2.50373 0.983651 -1.08184
upperback -4.79926 1.14951 -4.44924
thorax -6.33357 0.557329 -4.14523
lowerneck -6.11823 -2.37204 -4.82581
upperneck 5.96307 -2.83787 1.49008
head 3.10035 -1.46547 1.20116
rclavicle -9.93923e-015 -1.59028e-015
rhumerus -12.1338 -9.15444 -48.0513
rradius 109.835
rwrist -39.4478
rhand -8.67569 19.8279
rfingers 7.12502
rthumb 17.2586 -9.42575
lclavicle -9.93923e-015 -1.59028e-015
lhumerus -3.88202 6.87763 66.3984
lradius 116.109
lwrist 81.9299
lhand -3.58391 6.28708
lfingers 7.12502
lthumb 22.1535 35.0378
rfemur 5.42907 1.52242 17.6968
rtibia 13.583
rfoot -19.1359 -6.322
rtoes -8.99622
lfemur 3.76209 1.61649 -17.2613
ltibia 12.7416
lfoot -13.5474 -1.52741
ltoes -1.57316
112
root 3.7981 17.611 -0.260549 -22.6893 88.365 -19.8192
lowerback 2.49158 0.994062 -1.00581
upperback -4.81515 1.16749 -4.45633
thorax -6.34079 0.562246 -4.19727
lowerneck -6.14139 -2.38566 -4.83595
upperneck 6.03 -2.85967 1.5658
head 3.13059 -1.47442 1.22677
rclavicle 4.77083e-015 -2.8625e-014
rhumerus -12.0052 -9.95493 -47.5194
rradius 109.493
rwrist -40.1778
rhand -8.93081 19.8093
rfingers 7.12502
rthumb 17.013 -9.4657
lclavicle 4.77083e-015 -2.8625e-014
lhumerus -3.55228 7.69121 66.0086
lradius 115.632
lwrist 82.6129
lhand -3.61927 6.13423
lfingers 7.12502
lthumb 22.1195 34.8889
rfemur 5.43752 1.55329 17.8229
rtibia 13.5501
rfoot -19.1805 -6.3222
rtoes -7.72016
lfemur 3.76408 1.63326 -17.1394
ltibia 12.7362
lfoot -13.5099 -1.59021
ltoes -1.50588
113
root 3.79681 17.6113 -0.264702 -22.687 88.3669 -19.7952
lowerback 2.54056 1.01169 -1.00547
upperback -4.82019 1.18785 -4.51071
thorax -6.37245 0.571085 -4.25852
lowerneck -6.19775 -2.40751 -4.85612
upperneck 6.13201 -2.89363 1.68912
head 3.18117 -1.48809 1.26917
rclavicle 1.15295e-014 1.59028e-015
rhumerus -11.9193 -10.7737 -46.9692
rradius 109.175
rwrist -41.0038
rhand -9.01437 19.7184
rfingers 7.12502
rthumb 16.9326 -9.56344
lclavicle 1.15295e-014 1.59028e-015
lhumerus -3.16107 8.52015 65.5808
lradius 115.17
lwrist 83.4964
lhand -3.59021 6.1418
lfingers 7.12502
lthumb 22.1474 34.8932
rfemur 5.4712 1.59215 17.8145
rtibia 13.5237
rfoot -19.2317 -6.30605
rtoes -6.32439
lfemur 3.78167 1.61876 -17.1547
ltibia 12.737
lfoot -13.5432 -1.57741
ltoes -1.59183
114
root 3.79491 17.6114 -0.268701 -20.0946 88.4011 -17.1778
lowerback 2.59299 1.00506 -1.14638
upperback -4.81954 1.16906 -4.52739
thorax -6.40578 0.568373 -4.19689
lowerneck -6.26284 -2.40412 -4.91453
upperneck 6.23066 -2.88429 1.74203
head 3.23005 -1.48357 1.29727
rclavicle -5.56597e-015 -5.24792e-014
rhumerus -11.7589 -11.5463 -46.3957
rradius 108.812
rwrist -41.9387
rhand -8.89764 19.3893
rfingers 7.12502
rthumb 17.045 -9.88289
lclavicle -5.56597e-015 -5.24792e-014
lhumerus -2.87978 9.4667 65.023
lradius 114.839
lwrist 84.485
lhand -3.61228 6.17667
lfingers 7.12502
lthumb 22.1262 34.9306
rfemur 5.53157 1.5892 17.7079
rtibia 13.448
rfoot -19.1881 -6.31056
rtoes -7.30054
lfemur 3.75895 1.66553 -17.2519
ltibia 12.8099
lfoot -13.594 -1.60814
ltoes -1.74823
115
root 3.79153 17.611 -0.273377 -18.8055 88.4136 -15.888
lowerback 2.5899 1.00938 -1.24746
upperback -4.79038 1.16998 -4.5356
thorax -6.37473 0.574108 -4.14738
lowerneck -6.36913 -2.41562 -4.85099
upperneck 6.32593 -2.89361 1.65633
head 3.28014 -1.49032 1.25644
rclavicle 1.15295e-014 9.54166e-015
rhumerus -11.5993 -12.3703 -45.8509
rradius 108.413
rwrist -42.8942
rhand -8.76934 19.1027
rfingers 7.12502
rthumb 17.1685 -10.1588
lclavicle 1.15295e-014 9.54166e-015
lhumerus -2.55326 10.3924 64.5155
lradius 114.544
lwrist 85.3986
lhand -3.91386 6.19353
lfingers 7.12502
lthumb 21.8367 34.9815
rfemur 5.54501 1.541 17.6407
rtibia 13.4014
rfoot -19.1045 -6.35908
rtoes -8.48664
lfemur 3.71411 1.65469 -17.3149
ltibia 12.8712
lfoot -13.5946 -1.6185
ltoes -1.58696
116
root 3.7876 17.6115 -0.278436 -23.7687 88.3288 -20.8826
lowerback 2.58339 1.00773 -1.14372
upperback -4.78991 1.17464 -4.47247
thorax -6.36897 0.571953 -4.1391
lowerneck -6.39651 -2.3875 -4.85604
upperneck 6.36357 -2.85288 1.64298
head 3.29674 -1.47095 1.25485
rclavicle -9.14409e-015 2.8625e-014
rhumerus -11.4365 -13.0817 -45.3097
rradius 108.046
rwrist -43.8703
rhand -8.80103 18.8813
rfingers 7.12502
rthumb 17.138 -10.3828
lclavicle -9.14409e-015 2.8625e-014
lhumerus -2.33425 11.2759 63.9764
lradius 114.25
lwrist 86.4008
lhand -4.30457 6.1452
lfingers 7.12502
lthumb 21.4615 34.9764
rfemur 5.50092 1.6019 17.8102
rtibia 13.3807
rfoot -19.074 -6.37185
rtoes -7.97736
lfemur 3.64386 1.70852 -17.1439
ltibia 12.9196
lfoot -13.5895 -1.64056
ltoes -1.9958
117
root 3.78361 17.6117 -0.281866 -26.2043 88.2799 -23.3043
lowerback 2.63621 1.00367 -1.11904
upperback -4.78377 1.1691 -4.42988
thorax -6.39337 0.568077 -4.10896
lowerneck -6.36919 -2.3556 -4.95315
upperneck 6.36488 -2.81122 1.75804
head 3.29545 -1.44843 1.31272
rclavicle 1.27222e-014 -1.11319e-014
rhumerus -11.2831 -13.7926 -44.8225
rradius 107.687
rwrist -44.7157
rhand -8.96497 18.6285
rfingers 7.12502
rthumb 16.9802 -10.6493
lclavicle 1.27222e-014 -1.11319e-014
lhumerus -2.17886 12.1277 63.4278
lradius 113.949
lwrist 87.5581
lhand -4.66716 6.11889
lfingers 7.12502
lthumb 21.1132 34.9894
rfemur 5.52245 1.63314 17.9003
rtibia 13.3195
rfoot -19.0516 -6.36612
rtoes -7.79463
lfemur 3.59951 1.72604 -17.0566
ltibia 13.0218
lfoot -13.6453 -1.65448
ltoes -2.00041
118
root 3.78144 17.611 -0.28642 -25.1311 88.3026 -22.1995
lowerback 2.69053 0.994196 -1.1943
upperback -4.76808 1.15054 -4.41715
thorax -6.41083 0.562556 -4.0527
lowerneck -6.39068 -2.34799 -5.03541
upperneck 6.40658 -2.79522 1.80043
head 3.31644 -1.44122 1.34231
rclavicle -2.22639e-014 1.90833e-014
rhumerus -11.1511 -14.4719 -44.3238
rradius 107.299
rwrist -45.5193
rhand -9.14833 18.4605
rfingers 7.12502
rthumb 16.8037 -10.8324
lclavicle -2.22639e-014 1.90833e-014
lhumerus -2.03491 12.928 62.8588
lradius 113.581
lwrist 88.6361
lhand -4.99844 5.93225
lfingers 7.12502
lthumb 20.7949 34.8379
rfemur 5.63346 1.61722 17.8411
rtibia 13.139
rfoot -18.9391 -6.42522
rtoes -7.95826
lfemur 3.50053 1.69643 -17.1176
ltibia 13.2707
lfoot -13.7867 -1.63757
ltoes -2.09708
119
root 3.77619 17.6115 -0.289555 -29.1643 88.2814 -26.2418
lowerback 2.75984 0.975217 -1.13
upperback -4.78272 1.12636 -4.37051
thorax -6.46733 0.547273 -4.04042
lowerneck -6.43835 -2.34929 -5.02473
upperneck 6.51147 -2.79272 1.76805
head 3.3609 -1.44169 1.32964
rclavicle 1.98785e-015 -3.81667e-014
rhumerus -11.1057 -15.1046 -43.8392
rradius 106.95
rwrist -46.274
rhand -9.53246 18.2065
rfingers 7.12502
rthumb 16.4338 -11.1174
lclavicle 1.98785e-015 -3.81667e-014
lhumerus -1.91353 13.6545 62.2445
lradius 113.218
lwrist 89.6388
lhand -5.32833 5.54812
lfingers 7.12502
lthumb 20.4779 34.4882
rfemur 5.71368 1.60671 17.9753
rtibia 12.9444
rfoot -18.8529 -6.62084
rtoes -8.39633
lfemur 3.33537 1.65076 -16.9957
ltibia 13.5328
lfoot -13.8859 -1.67544
ltoes -2.28878
